GIL01_fast5_ik
nRows=3
nColumns=375

# SIMM Motion File Header:
name GIL01_fast5_ik
datacolumns 375
datarows 3
otherdata 1
range 0.32500000 0.34167000
endheader
time	pelvis_tx	pelvis_ty	pelvis_tz	pelvis_tilt	pelvis_list	pelvis_rotation	hip_flexion_r	hip_adduction_r	hip_rotation_r	knee_angle_r	ankle_angle_r	hip_flexion_l	hip_adduction_l	hip_rotation_l	knee_angle_l	ankle_angle_l	lumbar_extension	lumbar_bending	lumbar_rotation	subtalar_angle_r	mtp_angle_r	subtalar_angle_l	mtp_angle_l	asis_r_px	asis_r_py	asis_r_pz	asis_l_px	asis_l_py	asis_l_pz	midasis_px	midasis_py	midasis_pz	psis_r_px	psis_r_py	psis_r_pz	psis_l_px	psis_l_py	psis_l_pz	hip_r_px	hip_r_py	hip_r_pz	hip_l_px	hip_l_py	hip_l_pz	midhip_px	midhip_py	midhip_pz	epicondLat_r_px	epicondLat_r_py	epicondLat_r_pz	epicondMed_r_px	epicondMed_r_py	epicondMed_r_pz	thighwand_r_px	thighwand_r_py	thighwand_r_pz	upperleg1_r_px	upperleg1_r_py	upperleg1_r_pz	upperleg2_r_px	upperleg2_r_py	upperleg2_r_pz	malleolusLat_r_px	malleolusLat_r_py	malleolusLat_r_pz	malleolusMedv_r_px	malleolusMedv_r_py	malleolusMedv_r_pz	shankwand_r_px	shankwand_r_py	shankwand_r_pz	lowerleg1_r_px	lowerleg1_r_py	lowerleg1_r_pz	knee_r_px	knee_r_py	knee_r_pz	ankle_r_px	ankle_r_py	ankle_r_pz	toe_r_px	toe_r_py	toe_r_pz	epicondLat_l_px	epicondLat_l_py	epicondLat_l_pz	epicondMed_l_px	epicondMed_l_py	epicondMed_l_pz	thighwand_l_px	thighwand_l_py	thighwand_l_pz	upperleg1_l_px	upperleg1_l_py	upperleg1_l_pz	upperleg2_l_px	upperleg2_l_py	upperleg2_l_pz	malleolusLat_l_px	malleolusLat_l_py	malleolusLat_l_pz	malleolusMedv_l_px	malleolusMedv_l_py	malleolusMedv_l_pz	shankwand_l_px	shankwand_l_py	shankwand_l_pz	lowerleg1_l_px	lowerleg1_l_py	lowerleg1_l_pz	knee_l_px	knee_l_py	knee_l_pz	ankle_l_px	ankle_l_py	ankle_l_pz	toe_l_px	toe_l_py	toe_l_pz	subclavicle_r_px	subclavicle_r_py	subclavicle_r_pz	subclavicle_l_px	subclavicle_l_py	subclavicle_l_pz	neck_px	neck_py	neck_pz	sternalnotch_px	sternalnotch_py	sternalnotch_pz	xyphoidprocess_px	xyphoidprocess_py	xyphoidprocess_pz	midhip_tx	midhip_ty	midhip_tz	hip_r_tx	hip_r_ty	hip_r_tz	hip_l_tx	hip_l_ty	hip_l_tz	knee_r_tx	knee_r_ty	knee_r_tz	knee_l_tx	knee_l_ty	knee_l_tz	ankle_r_tx	ankle_r_ty	ankle_r_tz	ankle_l_tx	ankle_l_ty	ankle_l_tz	midasis_tx	midasis_ty	midasis_tz	asis_r_tx	asis_r_ty	asis_r_tz	asis_l_tx	asis_l_ty	asis_l_tz	psis_r_tx	psis_r_ty	psis_r_tz	psis_l_tx	psis_l_ty	psis_l_tz	epicondLat_r_tx	epicondLat_r_ty	epicondLat_r_tz	epicondLat_l_tx	epicondLat_l_ty	epicondLat_l_tz	epicondMed_r_tx	epicondMed_r_ty	epicondMed_r_tz	epicondMed_l_tx	epicondMed_l_ty	epicondMed_l_tz	malleolusLat_r_tx	malleolusLat_r_ty	malleolusLat_r_tz	malleolusLat_l_tx	malleolusLat_l_ty	malleolusLat_l_tz	malleolusMedv_r_tx	malleolusMedv_r_ty	malleolusMedv_r_tz	malleolusMedv_l_tx	malleolusMedv_l_ty	malleolusMedv_l_tz	neck_tx	neck_ty	neck_tz	subclavicle_r_tx	subclavicle_r_ty	subclavicle_r_tz	subclavicle_l_tx	subclavicle_l_ty	subclavicle_l_tz	sternalnotch_tx	sternalnotch_ty	sternalnotch_tz	xyphoidprocess_tx	xyphoidprocess_ty	xyphoidprocess_tz	thighwand_r_tx	thighwand_r_ty	thighwand_r_tz	thighwand_l_tx	thighwand_l_ty	thighwand_l_tz	upperleg1_r_tx	upperleg1_r_ty	upperleg1_r_tz	upperleg1_l_tx	upperleg1_l_ty	upperleg1_l_tz	upperleg2_r_tx	upperleg2_r_ty	upperleg2_r_tz	upperleg2_l_tx	upperleg2_l_ty	upperleg2_l_tz	shankwand_r_tx	shankwand_r_ty	shankwand_r_tz	shankwand_l_tx	shankwand_l_ty	shankwand_l_tz	lowerleg1_r_tx	lowerleg1_r_ty	lowerleg1_r_tz	lowerleg1_l_tx	lowerleg1_l_ty	lowerleg1_l_tz	toe_r_tx	toe_r_ty	toe_r_tz	toe_l_tx	toe_l_ty	toe_l_tz	ground_force_vx	ground_force_vy	ground_force_vz	ground_force_px	ground_force_py	ground_force_pz	ground_force_vx	ground_force_vy	ground_force_vz	ground_force_px	ground_force_py	ground_force_pz	ground_torque_x	ground_torque_y	ground_torque_z	ground_torque_x	ground_torque_y	ground_torque_z	ground_marker_px	ground_marker_py	ground_marker_pz	ground_marker_px	ground_marker_py	ground_marker_pz	ground_marker_px	ground_marker_py	ground_marker_pz	ground_marker_px	ground_marker_py	ground_marker_pz	ground_marker_px	ground_marker_py	ground_marker_pz	ground_marker_px	ground_marker_py	ground_marker_pz	ground_marker_px	ground_marker_py	ground_marker_pz	ground_marker_px	ground_marker_py	ground_marker_pz	ground_marker_px	ground_marker_py	ground_marker_pz	ground_marker_px	ground_marker_py	ground_marker_pz	ground_marker_px	ground_marker_py	ground_marker_pz	ground_marker_px	ground_marker_py	ground_marker_pz	ground_marker_px	ground_marker_py	ground_marker_pz	ground_marker_px	ground_marker_py	ground_marker_pz	ground_marker_px	ground_marker_py	ground_marker_pz	ground_marker_px	ground_marker_py	ground_marker_pz	ground_marker_px	ground_marker_py	ground_marker_pz	ground_marker_px	ground_marker_py	ground_marker_pz	ground_marker_px	ground_marker_py	ground_marker_pz	ground_marker_px	ground_marker_py	ground_marker_pz	ground_marker_px	ground_marker_py	ground_marker_pz	ground_marker_px	ground_marker_py	ground_marker_pz	ground_marker_px	ground_marker_py	ground_marker_pz	ground_marker_px	ground_marker_py	ground_marker_pz	ground_marker_px	ground_marker_py	ground_marker_pz	ground_marker_px	ground_marker_py	ground_marker_pz	ground_marker_px	ground_marker_py	ground_marker_pz	ground_marker_px	ground_marker_py	ground_marker_pz	ground_marker_px	ground_marker_py	ground_marker_pz	ground_marker_px	ground_marker_py	ground_marker_pz	ground_marker_px	ground_marker_py	ground_marker_pz	ground_marker_px	ground_marker_py	ground_marker_pz	ground_marker_px	ground_marker_py	ground_marker_pz	ground_marker_px	ground_marker_py	ground_marker_pz	ground_marker_px	ground_marker_py	ground_marker_pz	ground_marker_px	ground_marker_py	ground_marker_pz	ground_marker_px	ground_marker_py	ground_marker_pz
      0.32500000	      0.81920376	      0.79663811	     -0.20235298	     -6.58291986	      0.17291359	     -3.63728950	      2.59542318	      7.05008631	      5.25245993	     -6.70185140	      7.99025060	     31.86143610	     -4.35255498	      2.75553276	    -41.46743668	     -3.63431061	      2.85457377	     -3.98843525	      3.99316208	      0.00000000	      0.00000000	      0.00000000	      0.00000000	      0.83222318	      0.79612400	     -0.09822726	      0.86256350	      0.78892927	     -0.30545746	      0.83056551	      0.79532473	     -0.20162593	      0.69417487	      0.85418862	     -0.19270661	      0.69829388	      0.85212836	     -0.24766043	      0.75129239	      0.74981037	     -0.13797224	      0.75995513	      0.74922515	     -0.27440353	      0.75562376	      0.74951776	     -0.20618788	      0.69411971	      0.39674391	     -0.11986182	      0.69814891	      0.41184984	     -0.22593086	      0.81706988	      0.49524766	     -0.06000876	      0.75299534	      0.56468986	     -0.08356933	      0.73758753	      0.48164385	     -0.10909032	      0.65732586	      0.06111916	     -0.17458538	      0.66948320	      0.06757561	     -0.23320417	      0.64790635	      0.16451386	     -0.08711386	      0.65158158	      0.13814393	     -0.16537659	      0.72764487	      0.41794096	     -0.17899492	      0.66565134	      0.07646735	     -0.22044539	      0.76385756	      0.02554841	     -0.18672054	      0.87741219	      0.43686317	     -0.34649778	      0.86936603	      0.37187305	     -0.22230726	      0.98466584	      0.60490066	     -0.28864927	      0.89996859	      0.63991873	     -0.32061182	      0.89492019	      0.50074414	     -0.29501587	      0.80072109	      0.11167234	     -0.37269014	      0.81162684	      0.10012110	     -0.31901531	      0.83794477	      0.23985959	     -0.43080579	      0.81479775	      0.19510577	     -0.36350681	      0.90743887	      0.44404410	     -0.28943735	      0.81163113	      0.10980903	     -0.32512156	      0.89729610	      0.04584920	     -0.36695651	      0.81428271	      1.16429569	     -0.18430726	      0.81471544	      1.16944695	     -0.25934388	      0.70803721	      1.21323213	     -0.23305035	      0.80038739	      1.16475056	     -0.22344865	      0.83538583	      1.08516002	     -0.22632421	      0.76225500	      0.74308500	     -0.20725800	      0.74897100	      0.74346100	     -0.15098400	      0.75729800	      0.74241500	     -0.28102900	      0.72778400	      0.40422900	     -0.19158100	      0.90009800	      0.44597000	     -0.29779300	      0.66660100	      0.06740900	     -0.22090200	      0.80592900	      0.11447300	     -0.30754500	      0.82859600	      0.80602200	     -0.21168100	      0.82226800	      0.80681600	     -0.11287000	      0.83492400	      0.80522700	     -0.31049200	      0.67135800	      0.86064200	     -0.18644100	      0.67236500	      0.85640700	     -0.24151200	      0.72885100	      0.39762900	     -0.13698900	      0.90411700	      0.45096600	     -0.35191400	      0.73510000	      0.41486600	     -0.23576300	      0.92032800	      0.41604600	     -0.25954200	      0.65823000	      0.06575100	     -0.18438600	      0.80048600	      0.11709300	     -0.34404800	      0.66853200	      0.07117500	     -0.24557400	      0.81116600	      0.11447800	     -0.27822800	      0.70624900	      1.21900500	     -0.23230000	      0.81471100	      1.16535900	     -0.18648400	      0.81887800	      1.16640700	     -0.26237100	      0.80224500	      1.16406600	     -0.22664900	      0.83364200	      1.08304600	     -0.22363400	      0.84260700	      0.50751300	     -0.07095500	      0.98374300	      0.62182500	     -0.28237300	      0.76767200	      0.57214300	     -0.09292900	      0.89685300	      0.64457200	     -0.32382700	      0.76461300	      0.48996700	     -0.11839300	      0.93005900	      0.56366200	     -0.32688900	      0.66297100	      0.16934800	     -0.09883200	      0.85196800	      0.22982700	     -0.41681100	      0.66142500	      0.14120900	     -0.17763600	      0.82608800	      0.19653900	     -0.34461600	      0.75859200	      0.03534700	     -0.19807900	      0.88881200	      0.05408300	     -0.32125700	      2.52344185	    303.68704900	     -4.41554812	      0.73682849	      0.00000000	     -0.19388747	      0.00000000	      0.00000000	      0.00000000	      1.19988525	      0.00000000	     -0.26343649	      0.00000000	      1.58067847	      0.00000000	      0.00000000	      0.00000000	      0.00000000	      0.76225519	      0.74308527	     -0.20725799	      0.74897051	      0.74346095	     -0.15098417	      0.75729841	      0.74241543	     -0.28102908	      0.72778398	      0.40422881	     -0.19158129	      0.90009761	      0.44596982	     -0.29779282	      0.66660053	      0.06740939	     -0.22090217	      0.80592942	      0.11447302	     -0.30754474	      0.82859600	      0.80602163	     -0.21168132	      0.82226825	      0.80681604	     -0.11287043	      0.83492368	      0.80522722	     -0.31049222	      0.67135793	      0.86064237	     -0.18644106	      0.67236543	      0.85640711	     -0.24151248	      0.72885054	      0.39762896	     -0.13698913	      0.90411669	      0.45096636	     -0.35191429	      0.73509997	      0.41486633	     -0.23576318	      0.92032796	      0.41604641	     -0.25954229	      0.65823007	      0.06575108	     -0.18438596	      0.80048591	      0.11709321	     -0.34404820	      0.66853189	      0.07117499	     -0.24557441	      0.81116587	      0.11447824	     -0.27822822	      0.70624900	      1.21900535	     -0.23229963	      0.81471109	      1.16535902	     -0.18648444	      0.81887817	      1.16640651	     -0.26237071	      0.80224496	      1.16406596	     -0.22664884	      0.83364153	      1.08304584	     -0.22363427	      0.84260690	      0.50751323	     -0.07095522	      0.98374289	      0.62182480	     -0.28237277	      0.76767206	      0.57214266	     -0.09292912	      0.89685267	      0.64457184	     -0.32382742	      0.76461256	      0.48996717	     -0.11839327	      0.93005878	      0.56366181	     -0.32688919	      0.66297144	      0.16934821	     -0.09883153	      0.85196847	      0.22982688	     -0.41681057	      0.66142499	      0.14120947	     -0.17763612	      0.82608819	      0.19653928	     -0.34461594	      0.75859207	      0.03534660	     -0.19807929	      0.88881165	      0.05408344	     -0.32125741
      0.33333000	      0.82966307	      0.79545344	     -0.20193806	     -6.69780249	      0.38190574	     -4.17210391	      1.66077255	      6.82879474	      5.27704807	     -6.25612455	      8.31340459	     32.19509821	     -4.38205347	      2.25626777	    -38.10881148	     -3.41542337	      2.89151905	     -4.06463436	      4.54198046	      0.00000000	      0.00000000	      0.00000000	      0.00000000	      0.84167122	      0.79464865	     -0.09769271	      0.87400465	      0.78791645	     -0.30463686	      0.84101453	      0.79411479	     -0.20110429	      0.70466407	      0.85323708	     -0.19335681	      0.70931150	      0.85130757	     -0.24827322	      0.76103537	      0.74860289	     -0.13833823	      0.77101930	      0.74834549	     -0.27468021	      0.76602734	      0.74847419	     -0.20650922	      0.69716748	      0.39666103	     -0.12071870	      0.70243174	      0.41166438	     -0.22674820	      0.82137790	      0.49288342	     -0.05976671	      0.75881643	      0.56349561	     -0.08390893	      0.74210262	      0.48074333	     -0.10956185	      0.65734139	      0.06121356	     -0.17584019	      0.67015224	      0.06753243	     -0.23433466	      0.64816841	      0.16471259	     -0.08846593	      0.65233901	      0.13829685	     -0.16668836	      0.73155658	      0.41725342	     -0.17954389	      0.66628965	      0.07646633	     -0.22161466	      0.76382267	      0.02504046	     -0.18672549	      0.88989460	      0.43639429	     -0.34622640	      0.88192040	      0.37151345	     -0.22197411	      0.99635300	      0.60494430	     -0.28839996	      0.91156175	      0.63957178	     -0.32053836	      0.90705317	      0.50040673	     -0.29479018	      0.83400869	      0.10530539	     -0.37116239	      0.84525271	      0.09474324	     -0.31735377	      0.86355574	      0.23525407	     -0.42977394	      0.84279302	      0.18950232	     -0.36236824	      0.91923029	      0.44412709	     -0.28913899	      0.84469387	      0.10437989	     -0.32351533	      0.93467247	      0.04602007	     -0.36447255	      0.82557601	      1.16308322	     -0.18387147	      0.82602536	      1.16837238	     -0.25889840	      0.71943981	      1.21233865	     -0.23253131	      0.81168458	      1.16364046	     -0.22301293	      0.84651163	      1.08398014	     -0.22603335	      0.77277000	      0.74235700	     -0.20805700	      0.75872100	      0.74278700	     -0.15119100	      0.76831600	      0.74184800	     -0.28115000	      0.73162900	      0.40405800	     -0.19160500	      0.91241200	      0.44586200	     -0.29683200	      0.66708600	      0.06773400	     -0.22123100	      0.83890500	      0.10769300	     -0.30669300	      0.83906500	      0.80523900	     -0.21104700	      0.83176700	      0.80595300	     -0.11219400	      0.84636400	      0.80452500	     -0.30990000	      0.68204600	      0.86012000	     -0.18773700	      0.68331600	      0.85589600	     -0.24269400	      0.73207000	      0.39750800	     -0.13699800	      0.91648300	      0.45071200	     -0.35096300	      0.74200300	      0.41451500	     -0.23603000	      0.93552400	      0.41650000	     -0.26016000	      0.65852100	      0.06616500	     -0.18475600	      0.83313500	      0.11001000	     -0.34316600	      0.66924600	      0.07144500	     -0.24585600	      0.84418600	      0.10777900	     -0.27748100	      0.71776400	      1.21848000	     -0.23171200	      0.82608600	      1.16451600	     -0.18602400	      0.83014400	      1.16528300	     -0.26245600	      0.81355400	      1.16313900	     -0.22642800	      0.84459900	      1.08199300	     -0.22318500	      0.84719300	      0.50597600	     -0.07004900	      0.99602100	      0.62254700	     -0.28177700	      0.77367800	      0.57177900	     -0.09290300	      0.90920200	      0.64497300	     -0.32359900	      0.77028800	      0.48948300	     -0.11832600	      0.94363700	      0.56453400	     -0.32675600	      0.66392200	      0.16972300	     -0.09921400	      0.87712000	      0.22599000	     -0.41602000	      0.66215800	      0.14204600	     -0.17773800	      0.85385700	      0.19085500	     -0.34360100	      0.75888500	      0.03524800	     -0.19804900	      0.92542400	      0.05306500	     -0.32091400	      4.68582237	    310.80467279	     -6.37901642	      0.73968292	      0.00000000	     -0.19384201	      0.00000000	      0.00000000	      0.00000000	      1.20249890	      0.00000000	     -0.26371725	      0.00000000	      1.43544434	      0.00000000	      0.00000000	      0.00000000	      0.00000000	      0.77276993	      0.74235719	     -0.20805739	      0.75872099	      0.74278742	     -0.15119110	      0.76831591	      0.74184841	     -0.28114951	      0.73162925	      0.40405795	     -0.19160463	      0.91241211	      0.44586179	     -0.29683194	      0.66708589	      0.06773416	     -0.22123092	      0.83890527	      0.10769258	     -0.30669260	      0.83906543	      0.80523920	     -0.21104723	      0.83176696	      0.80595344	     -0.11219406	      0.84636384	      0.80452490	     -0.30990040	      0.68204600	      0.86012036	     -0.18773687	      0.68331623	      0.85589623	     -0.24269414	      0.73206979	      0.39750764	     -0.13699786	      0.91648340	      0.45071185	     -0.35096279	      0.74200320	      0.41451523	     -0.23602979	      0.93552417	      0.41649994	     -0.26016030	      0.65852058	      0.06616490	     -0.18475597	      0.83313453	      0.11001048	     -0.34316623	      0.66924572	      0.07144540	     -0.24585579	      0.84418589	      0.10777877	     -0.27748063	      0.71776354	      1.21847951	     -0.23171243	      0.82608634	      1.16451621	     -0.18602362	      0.83014411	      1.16528308	     -0.26245600	      0.81355351	      1.16313899	     -0.22642758	      0.84459919	      1.08199263	     -0.22318502	      0.84719265	      0.50597608	     -0.07004911	      0.99602133	      0.62254739	     -0.28177679	      0.77367836	      0.57177925	     -0.09290255	      0.90920162	      0.64497256	     -0.32359907	      0.77028841	      0.48948324	     -0.11832606	      0.94363695	      0.56453395	     -0.32675603	      0.66392231	      0.16972332	     -0.09921367	      0.87711990	      0.22598957	     -0.41601965	      0.66215765	      0.14204623	     -0.17773804	      0.85385740	      0.19085504	     -0.34360105	      0.75888526	      0.03524841	     -0.19804911	      0.92542446	      0.05306549	     -0.32091385
      0.34167000	      0.84024511	      0.79404117	     -0.20168965	     -6.83694770	      0.50541454	     -4.65144845	      0.75207939	      6.70520830	      5.07813209	     -5.81830311	      8.61888422	     32.49210245	     -4.47899663	      1.64757153	    -34.63238186	     -3.32915836	      3.01798671	     -3.97405914	      4.84864257	      0.00000000	      0.00000000	      0.00000000	      0.00000000	      0.85135813	      0.79308712	     -0.09734634	      0.88544557	      0.78651093	     -0.30401384	      0.85158565	      0.79267322	     -0.20076031	      0.71532138	      0.85212705	     -0.19411138	      0.72043407	      0.85024877	     -0.24898820	      0.77095896	      0.74728949	     -0.13873426	      0.78210934	      0.74716313	     -0.27498599	      0.77653415	      0.74722631	     -0.20686012	      0.70024738	      0.39662058	     -0.12188726	      0.70704550	      0.41150332	     -0.22784648	      0.82552602	      0.49048895	     -0.05946841	      0.76459961	      0.56226667	     -0.08434405	      0.74662879	      0.47984058	     -0.11019657	      0.65737843	      0.06140689	     -0.17754871	      0.67100498	      0.06757327	     -0.23587487	      0.64826383	      0.16501372	     -0.09029617	      0.65313250	      0.13854297	     -0.16845965	      0.73565980	      0.41658357	     -0.18029732	      0.66708183	      0.07655186	     -0.22320497	      0.76378677	      0.02454756	     -0.18689694	      0.90187259	      0.43543190	     -0.34600817	      0.89432375	      0.37081722	     -0.22159073	      1.00788319	      0.60446129	     -0.28876123	      0.92292459	      0.63873826	     -0.32083335	      0.91891219	      0.49962011	     -0.29475176	      0.86744194	      0.09962801	     -0.36893168	      0.87914454	      0.09016474	     -0.31501647	      0.88888542	      0.23079223	     -0.42835497	      0.87083226	      0.18427029	     -0.36069675	      0.93069229	      0.44372398	     -0.28900636	      0.87799671	      0.09970464	     -0.32124665	      0.97171680	      0.04704580	     -0.36153441	      0.83646971	      1.16175386	     -0.18307570	      0.83717226	      1.16726339	     -0.25808483	      0.73052214	      1.21120835	     -0.23194426	      0.82270931	      1.16243356	     -0.22226148	      0.85750484	      1.08276404	     -0.22540006	      0.78346700	      0.74152900	     -0.20876600	      0.76854500	      0.74200900	     -0.15122700	      0.77923000	      0.74098600	     -0.28109900	      0.73558400	      0.40393300	     -0.19168400	      0.92431500	      0.44523700	     -0.29570100	      0.66763800	      0.06809600	     -0.22166000	      0.87235500	      0.10153700	     -0.30590400	      0.84954700	      0.80423100	     -0.21043300	      0.84141500	      0.80501000	     -0.11157800	      0.85767900	      0.80345300	     -0.30928700	      0.69280900	      0.85943600	     -0.18910400	      0.69439000	      0.85519100	     -0.24391700	      0.73525400	      0.39743000	     -0.13707100	      0.92825400	      0.44984400	     -0.34986300	      0.74374100	      0.41486500	     -0.23576300	      0.94626100	      0.41625500	     -0.25924900	      0.65881800	      0.06663000	     -0.18524200	      0.86619200	      0.10355000	     -0.34233200	      0.67014300	      0.07192000	     -0.24612000	      0.87753300	      0.10167500	     -0.27689200	      0.72930300	      1.21779300	     -0.23115300	      0.83708900	      1.16353200	     -0.18537300	      0.84093000	      1.16425800	     -0.26181600	      0.82443400	      1.16220100	     -0.22574000	      0.85511300	      1.08091300	     -0.22256100	      0.85154500	      0.50448000	     -0.06888400	      1.00805500	      0.62247500	     -0.28163000	      0.77956000	      0.57144400	     -0.09283900	      0.92114900	      0.64463700	     -0.32360300	      0.77377300	      0.48919800	     -0.11810400	      0.95512300	      0.56392700	     -0.32649100	      0.66476500	      0.17018800	     -0.09971000	      0.90216900	      0.22248100	     -0.41521000	      0.66310600	      0.14257500	     -0.17801900	      0.88153300	      0.18560900	     -0.34248000	      0.75913200	      0.03516100	     -0.19799100	      0.96197800	      0.05284800	     -0.32044900	      7.11725801	    318.54011382	     -8.99252916	      0.74213293	      0.00000000	     -0.19390308	      0.00000000	      0.00000000	      0.00000000	      1.20454883	      0.00000000	     -0.26402777	      0.00000000	      1.19760339	      0.00000000	      0.00000000	      0.00000000	      0.00000000	      0.78346705	      0.74152851	     -0.20876583	      0.76854545	      0.74200904	     -0.15122655	      0.77922976	      0.74098629	     -0.28109926	      0.73558384	      0.40393344	     -0.19168445	      0.92431545	      0.44523740	     -0.29570088	      0.66763842	      0.06809641	     -0.22166008	      0.87235498	      0.10153688	     -0.30590430	      0.84954703	      0.80423117	     -0.21043266	      0.84141457	      0.80500966	     -0.11157828	      0.85767949	      0.80345261	     -0.30928704	      0.69280887	      0.85943621	     -0.18910407	      0.69438964	      0.85519117	     -0.24391738	      0.73525429	      0.39742997	     -0.13707131	      0.92825419	      0.44984367	     -0.34986281	      0.74374068	      0.41486475	     -0.23576251	      0.94626051	      0.41625512	     -0.25924948	      0.65881807	      0.06663035	     -0.18524165	      0.86619157	      0.10355008	     -0.34233177	      0.67014259	      0.07192027	     -0.24611962	      0.87753296	      0.10167548	     -0.27689216	      0.72930288	      1.21779251	     -0.23115337	      0.83708912	      1.16353226	     -0.18537262	      0.84093028	      1.16425753	     -0.26181623	      0.82443380	      1.16220105	     -0.22573973	      0.85511255	      1.08091283	     -0.22256134	      0.85154486	      0.50447953	     -0.06888407	      1.00805473	      0.62247503	     -0.28162980	      0.77956027	      0.57144380	     -0.09283928	      0.92114890	      0.64463699	     -0.32360259	      0.77377278	      0.48919797	     -0.11810403	      0.95512348	      0.56392735	     -0.32649085	      0.66476524	      0.17018765	     -0.09971002	      0.90216905	      0.22248124	     -0.41521046	      0.66310638	      0.14257519	     -0.17801942	      0.88153273	      0.18560907	     -0.34248027	      0.75913197	      0.03516099	     -0.19799121	      0.96197850	      0.05284774	     -0.32044923
